<mxfile host="Electron" agent="Mozilla/5.0 (X11; Linux x86_64) AppleWebKit/537.36 (KHTML, like Gecko) draw.io/24.7.17 Chrome/128.0.6613.36 Electron/32.0.1 Safari/537.36" version="24.7.17">
  <diagram name="Page-1" id="gzYhJm8VBEWpO5CrNmZi">
    <mxGraphModel dx="989" dy="576" grid="1" gridSize="10" guides="1" tooltips="1" connect="1" arrows="1" fold="1" page="1" pageScale="1" pageWidth="1100" pageHeight="850" math="0" shadow="0">
      <root>
        <mxCell id="0" />
        <mxCell id="1" parent="0" />
        <mxCell id="-WRSDFf1ST_bGuQm_Xgk-1" value="Genesis block&lt;div&gt;&lt;br&gt;&lt;/div&gt;&lt;div&gt;T&lt;sub&gt;g&lt;/sub&gt;1(...)&lt;/div&gt;&lt;div&gt;T&lt;sub&gt;g&lt;/sub&gt;2(...)&lt;/div&gt;&lt;div&gt;...&lt;/div&gt;&lt;div&gt;T&lt;sub&gt;g&lt;/sub&gt;N(...)&lt;span style=&quot;white-space: pre;&quot;&gt;&#x9;&lt;/span&gt;=&amp;gt; H(GB)&lt;/div&gt;" style="verticalAlign=top;align=left;spacingTop=8;spacingLeft=2;spacingRight=12;shape=cube;size=10;direction=south;fontStyle=0;html=1;whiteSpace=wrap;" vertex="1" parent="1">
          <mxGeometry x="40" y="300" width="180" height="120" as="geometry" />
        </mxCell>
        <mxCell id="-WRSDFf1ST_bGuQm_Xgk-2" value="Block #1&lt;div&gt;&lt;br&gt;&lt;/div&gt;&lt;div&gt;T&lt;sub&gt;1&lt;/sub&gt;1(...)&lt;/div&gt;&lt;div&gt;T&lt;sub&gt;1&lt;/sub&gt;2(...)&lt;/div&gt;&lt;div&gt;...&lt;/div&gt;&lt;div&gt;T&lt;sub&gt;1&lt;/sub&gt;N(...)&lt;span style=&quot;white-space: pre;&quot;&gt;&#x9;&lt;/span&gt;=&amp;gt; H(B&lt;sub&gt;1&lt;/sub&gt; + H(GB))&lt;/div&gt;" style="verticalAlign=top;align=left;spacingTop=8;spacingLeft=2;spacingRight=12;shape=cube;size=10;direction=south;fontStyle=0;html=1;whiteSpace=wrap;" vertex="1" parent="1">
          <mxGeometry x="260" y="300" width="180" height="120" as="geometry" />
        </mxCell>
        <mxCell id="-WRSDFf1ST_bGuQm_Xgk-3" value="&lt;div&gt;Block #2&lt;/div&gt;&lt;div&gt;&lt;br&gt;&lt;/div&gt;&lt;div&gt;T&lt;sub&gt;2&lt;/sub&gt;1(...)&lt;/div&gt;&lt;div&gt;T&lt;sub&gt;2&lt;/sub&gt;2(...)&lt;/div&gt;&lt;div&gt;...&lt;/div&gt;&lt;div&gt;T&lt;sub&gt;2&lt;/sub&gt;N(...)&lt;span style=&quot;white-space: pre;&quot;&gt;&#x9;&lt;/span&gt;=&amp;gt; H(B&lt;sub&gt;2&lt;/sub&gt; + H(B&lt;sub&gt;1&lt;/sub&gt;))&lt;/div&gt;" style="verticalAlign=top;align=left;spacingTop=8;spacingLeft=2;spacingRight=12;shape=cube;size=10;direction=south;fontStyle=0;html=1;whiteSpace=wrap;" vertex="1" parent="1">
          <mxGeometry x="480" y="300" width="180" height="120" as="geometry" />
        </mxCell>
        <mxCell id="-WRSDFf1ST_bGuQm_Xgk-4" value="Block #N&lt;div&gt;&lt;br&gt;&lt;/div&gt;&lt;div&gt;T&lt;sub&gt;N&lt;/sub&gt;1(...)&lt;/div&gt;&lt;div&gt;T&lt;sub&gt;N&lt;/sub&gt;2(...)&lt;/div&gt;&lt;div&gt;...&lt;/div&gt;&lt;div&gt;T&lt;sub&gt;N&lt;/sub&gt;N(...)&lt;span style=&quot;white-space: pre;&quot;&gt;&#x9;&lt;/span&gt;=&amp;gt; H(B&lt;sub&gt;N&lt;/sub&gt; + H(B&lt;sub&gt;N-1&lt;/sub&gt;))&lt;/div&gt;" style="verticalAlign=top;align=left;spacingTop=8;spacingLeft=2;spacingRight=12;shape=cube;size=10;direction=south;fontStyle=0;html=1;whiteSpace=wrap;" vertex="1" parent="1">
          <mxGeometry x="769" y="300" width="180" height="120" as="geometry" />
        </mxCell>
        <mxCell id="-WRSDFf1ST_bGuQm_Xgk-5" value="" style="shape=waypoint;sketch=0;size=6;pointerEvents=1;points=[];fillColor=none;resizable=0;rotatable=0;perimeter=centerPerimeter;snapToPoint=1;" vertex="1" parent="1">
          <mxGeometry x="680" y="350" width="20" height="20" as="geometry" />
        </mxCell>
        <mxCell id="-WRSDFf1ST_bGuQm_Xgk-6" value="" style="shape=waypoint;sketch=0;size=6;pointerEvents=1;points=[];fillColor=none;resizable=0;rotatable=0;perimeter=centerPerimeter;snapToPoint=1;" vertex="1" parent="1">
          <mxGeometry x="700" y="350" width="20" height="20" as="geometry" />
        </mxCell>
        <mxCell id="-WRSDFf1ST_bGuQm_Xgk-7" value="" style="shape=waypoint;sketch=0;size=6;pointerEvents=1;points=[];fillColor=none;resizable=0;rotatable=0;perimeter=centerPerimeter;snapToPoint=1;" vertex="1" parent="1">
          <mxGeometry x="720" y="350" width="20" height="20" as="geometry" />
        </mxCell>
        <mxCell id="-WRSDFf1ST_bGuQm_Xgk-8" value="" style="curved=1;endArrow=classic;html=1;rounded=0;entryX=-0.007;entryY=0.517;entryDx=0;entryDy=0;entryPerimeter=0;exitX=-0.018;exitY=0.525;exitDx=0;exitDy=0;exitPerimeter=0;endSize=12;" edge="1" parent="1" source="-WRSDFf1ST_bGuQm_Xgk-1" target="-WRSDFf1ST_bGuQm_Xgk-2">
          <mxGeometry width="50" height="50" relative="1" as="geometry">
            <mxPoint x="210" y="200" as="sourcePoint" />
            <mxPoint x="260" y="150" as="targetPoint" />
            <Array as="points">
              <mxPoint x="170" y="220" />
              <mxPoint x="310" y="220" />
            </Array>
          </mxGeometry>
        </mxCell>
        <mxCell id="-WRSDFf1ST_bGuQm_Xgk-14" value="" style="curved=1;endArrow=classic;html=1;rounded=0;entryX=-0.007;entryY=0.517;entryDx=0;entryDy=0;entryPerimeter=0;exitX=-0.018;exitY=0.525;exitDx=0;exitDy=0;exitPerimeter=0;endSize=12;" edge="1" parent="1">
          <mxGeometry width="50" height="50" relative="1" as="geometry">
            <mxPoint x="350" y="299" as="sourcePoint" />
            <mxPoint x="571" y="300" as="targetPoint" />
            <Array as="points">
              <mxPoint x="394" y="221" />
              <mxPoint x="534" y="221" />
            </Array>
          </mxGeometry>
        </mxCell>
        <mxCell id="-WRSDFf1ST_bGuQm_Xgk-17" value="" style="curved=1;endArrow=classic;html=1;rounded=0;exitX=-0.018;exitY=0.525;exitDx=0;exitDy=0;exitPerimeter=0;endSize=12;" edge="1" parent="1">
          <mxGeometry width="50" height="50" relative="1" as="geometry">
            <mxPoint x="570" y="299" as="sourcePoint" />
            <mxPoint x="660" y="220" as="targetPoint" />
            <Array as="points">
              <mxPoint x="580" y="220" />
            </Array>
          </mxGeometry>
        </mxCell>
        <mxCell id="-WRSDFf1ST_bGuQm_Xgk-18" value="" style="curved=1;endArrow=classic;html=1;rounded=0;exitX=-0.018;exitY=0.525;exitDx=0;exitDy=0;exitPerimeter=0;endSize=12;" edge="1" parent="1">
          <mxGeometry width="50" height="50" relative="1" as="geometry">
            <mxPoint x="768.9999999999995" y="221" as="sourcePoint" />
            <mxPoint x="858.9999999999995" y="300" as="targetPoint" />
            <Array as="points">
              <mxPoint x="848.9999999999995" y="221" />
            </Array>
          </mxGeometry>
        </mxCell>
        <mxCell id="-WRSDFf1ST_bGuQm_Xgk-19" value="" style="shape=waypoint;sketch=0;size=6;pointerEvents=1;points=[];fillColor=none;resizable=0;rotatable=0;perimeter=centerPerimeter;snapToPoint=1;" vertex="1" parent="1">
          <mxGeometry x="680" y="210" width="20" height="20" as="geometry" />
        </mxCell>
        <mxCell id="-WRSDFf1ST_bGuQm_Xgk-20" value="" style="shape=waypoint;sketch=0;size=6;pointerEvents=1;points=[];fillColor=none;resizable=0;rotatable=0;perimeter=centerPerimeter;snapToPoint=1;" vertex="1" parent="1">
          <mxGeometry x="700" y="210" width="20" height="20" as="geometry" />
        </mxCell>
        <mxCell id="-WRSDFf1ST_bGuQm_Xgk-21" value="" style="shape=waypoint;sketch=0;size=6;pointerEvents=1;points=[];fillColor=none;resizable=0;rotatable=0;perimeter=centerPerimeter;snapToPoint=1;" vertex="1" parent="1">
          <mxGeometry x="720" y="210" width="20" height="20" as="geometry" />
        </mxCell>
      </root>
    </mxGraphModel>
  </diagram>
</mxfile>
